<?xml version="1.0" encoding="UTF-8"?> <svg xmlns="http://www.w3.org/2000/svg" id="OL" viewBox="0 0 512 512"><defs><style> .cls-1 { fill: #002a5b; } </style></defs><path class="cls-1" d="m270,67.07V21.33h-28v45.74c-93.32,6.85-168.08,81.6-174.93,174.93H21.33v28h45.74c6.85,93.32,81.6,168.08,174.93,174.93v45.74h28v-45.74c93.32-6.85,168.08-81.6,174.93-174.93h45.74v-28h-45.74c-6.85-93.32-81.6-168.08-174.93-174.93Zm-28,202.93v52.66c-26.34-5.53-47.13-26.32-52.66-52.66h52.66Zm-52.66-28c5.53-26.34,26.32-47.13,52.66-52.66v52.66h-52.66Zm80.66,28h52.66c-5.53,26.34-26.32,47.13-52.66,52.66v-52.66Zm0-28v-52.66c26.34,5.53,47.13,26.32,52.66,52.66h-52.66Zm-28-81.09c-41.81,6.13-74.96,39.28-81.09,81.09h-65.74c6.72-77.87,68.96-140.11,146.83-146.83v65.74Zm-81.09,109.09c6.13,41.81,39.28,74.96,81.09,81.09v65.74c-77.87-6.72-140.11-68.96-146.83-146.83h65.74Zm109.09,81.09c41.81-6.13,74.96-39.28,81.09-81.09h65.74c-6.72,77.87-68.96,140.11-146.83,146.83v-65.74Zm81.09-109.09c-6.13-41.81-39.28-74.96-81.09-81.09v-65.74c77.87,6.72,140.11,68.96,146.83,146.83h-65.74Z"></path></svg> 